<?xml version="1.0" encoding="iso-8859-1"?>
<!-- Generator: Adobe Illustrator 19.0.0, SVG Export Plug-In . SVG Version: 6.00 Build 0)  -->
<svg version="1.1" id="Layer_1" xmlns="http://www.w3.org/2000/svg" xmlns:xlink="http://www.w3.org/1999/xlink" x="0px" y="0px"
	 viewBox="0 0 511.999 511.999" style="enable-background:new 0 0 511.999 511.999;" xml:space="preserve">
<path style="fill:#333333;" d="M133.336,435.204h245.328c13.993,0,25.336,11.342,25.336,25.332l0,0
	c0,13.991-11.344,25.332-25.336,25.332H133.336c-13.993,0-25.336-11.342-25.336-25.332l0,0
	C108,446.546,119.343,435.204,133.336,435.204z"/>
<path d="M32,26.132h448c17.674,0,32,14.327,32,32v256c0,17.674-14.327,32-32,32H32c-17.673,0.001-32-14.326-32-31.999V58.132
	C0,40.459,14.327,26.132,32,26.132z"/>
<circle style="fill:#FFFFFF;" cx="358.586" cy="185.388" r="98.144"/>
<g>
	<rect x="55.172" y="141.023" style="fill:#999999;" width="173.683" height="8"/>
	<rect x="106.167" y="181.397" style="fill:#999999;" width="122.688" height="8"/>
	<rect x="157.173" y="221.76" style="fill:#999999;" width="71.692" height="8"/>
</g>
<path style="fill:#E21B1B;" d="M390.768,233.836c-7.636,4.327-16.271,6.584-25.048,6.544c-14.274,0.402-27.93-5.821-36.992-16.856
	c-5.715-6.966-9.301-15.433-10.328-24.384h-10.48v-9.984h9.168v-2.616c0-1.968,0.168-4.096,0.328-5.888h-9.48v-10.16h10.968
	c1.685-9.233,5.948-17.799,12.296-24.712c8.96-10.067,21.887-15.694,35.359-15.392c8.083-0.063,16.078,1.672,23.408,5.08
	l-4.096,15.2c-5.673-2.904-11.954-4.42-18.328-4.424c-7.921-0.205-15.531,3.091-20.8,9.008c-3.735,4.319-6.225,9.574-7.2,15.2
	h42.856v10.16H337.6c-0.277,1.896-0.387,3.813-0.328,5.728v2.784H382.4v9.984h-43.36c0.718,5.926,3.167,11.507,7.04,16.048
	c5.72,5.924,13.691,9.135,21.92,8.832c6.738-0.077,13.361-1.758,19.32-4.904L390.768,233.836z"/>
<rect x="159.998" y="386.935" style="fill:#CCCCCC;" width="191.998" height="48.264"/>
<g>
</g>
<g>
</g>
<g>
</g>
<g>
</g>
<g>
</g>
<g>
</g>
<g>
</g>
<g>
</g>
<g>
</g>
<g>
</g>
<g>
</g>
<g>
</g>
<g>
</g>
<g>
</g>
<g>
</g>
</svg>
